# xmcd
# Track frame offsets:
# 150
# 15747
# 31576
# 50609
# 63968
# 76159
# 90456
# 105565
# 114734
# 133304
# 153812
# 162350
# 180175
# 196273
# 210717
#
# Disc length: 2972 seconds
# Revision: 0
# Processed by: cddbd v1.5.2PL0 Copyright (c) Steve Scherf et al.
# Submitted via: VisiTrax 2.11.2.271 - For more info visit www.synapsa.com
#
DISCID=b50b9a0f
DTITLE=Dennis, Adam - F-35
DYEAR=2011
DGENRE=Blues
TTITLE0=Fever Dream
TTITLE1=Love Comes to Ground
TTITLE2=My Family
TTITLE3=Milk
TTITLE4=Rise Up
TTITLE5=Long Ridwe Down
TTITLE6=Prince of Halcyon Days, The
TTITLE7=Really
TTITLE8=Seven Days
TTITLE9=Bus
TTITLE10=34 Summers
TTITLE11=I'll Never Tell
TTITLE12=Nobody
TTITLE13=Guilt on My Head
TTITLE14=Marshmallow
EXTD=
EXTT0=
EXTT1=
EXTT2=
EXTT3=
EXTT4=
EXTT5=
EXTT6=
EXTT7=
EXTT8=
EXTT9=
EXTT10=
EXTT11=
EXTT12=
EXTT13=
EXTT14=
PLAYORDER=
